<mxfile host="app.diagrams.net" agent="Mozilla/5.0 (X11; Linux x86_64; rv:131.0) Gecko/20100101 Firefox/131.0" version="24.7.17">
  <diagram name="Page-1" id="BW4MjTq16JB2aZrs1qIx">
    <mxGraphModel dx="1195" dy="1734" grid="1" gridSize="10" guides="1" tooltips="1" connect="1" arrows="1" fold="1" page="1" pageScale="1" pageWidth="850" pageHeight="1100" math="0" shadow="0">
      <root>
        <mxCell id="0" />
        <mxCell id="1" parent="0" />
        <mxCell id="N5PS_7Kms6tre_HhDDwK-1" value="&amp;lt;&amp;lt;Abstract&amp;gt;&amp;gt;CheckerPiece" style="swimlane;fontStyle=1;align=center;verticalAlign=top;childLayout=stackLayout;horizontal=1;startSize=26;horizontalStack=0;resizeParent=1;resizeParentMax=0;resizeLast=0;collapsible=1;marginBottom=0;whiteSpace=wrap;html=1;" vertex="1" parent="1">
          <mxGeometry x="370" y="-10" width="230" height="114" as="geometry" />
        </mxCell>
        <mxCell id="N5PS_7Kms6tre_HhDDwK-2" value="- position: Coord" style="text;strokeColor=none;fillColor=none;align=left;verticalAlign=top;spacingLeft=4;spacingRight=4;overflow=hidden;rotatable=0;points=[[0,0.5],[1,0.5]];portConstraint=eastwest;whiteSpace=wrap;html=1;" vertex="1" parent="N5PS_7Kms6tre_HhDDwK-1">
          <mxGeometry y="26" width="230" height="54" as="geometry" />
        </mxCell>
        <mxCell id="N5PS_7Kms6tre_HhDDwK-3" value="" style="line;strokeWidth=1;fillColor=none;align=left;verticalAlign=middle;spacingTop=-1;spacingLeft=3;spacingRight=3;rotatable=0;labelPosition=right;points=[];portConstraint=eastwest;strokeColor=inherit;" vertex="1" parent="N5PS_7Kms6tre_HhDDwK-1">
          <mxGeometry y="80" width="230" height="8" as="geometry" />
        </mxCell>
        <mxCell id="N5PS_7Kms6tre_HhDDwK-4" value="+ &lt;i&gt;canMove(destination:Coord)&lt;/i&gt;: Boolean" style="text;strokeColor=none;fillColor=none;align=left;verticalAlign=top;spacingLeft=4;spacingRight=4;overflow=hidden;rotatable=0;points=[[0,0.5],[1,0.5]];portConstraint=eastwest;whiteSpace=wrap;html=1;" vertex="1" parent="N5PS_7Kms6tre_HhDDwK-1">
          <mxGeometry y="88" width="230" height="26" as="geometry" />
        </mxCell>
        <mxCell id="N5PS_7Kms6tre_HhDDwK-5" value="&lt;div&gt;PlayerPiece&lt;/div&gt;" style="swimlane;fontStyle=1;align=center;verticalAlign=top;childLayout=stackLayout;horizontal=1;startSize=26;horizontalStack=0;resizeParent=1;resizeParentMax=0;resizeLast=0;collapsible=1;marginBottom=0;whiteSpace=wrap;html=1;" vertex="1" parent="1">
          <mxGeometry x="140" y="220" width="140" height="34" as="geometry" />
        </mxCell>
        <mxCell id="N5PS_7Kms6tre_HhDDwK-7" value="" style="line;strokeWidth=1;fillColor=none;align=left;verticalAlign=middle;spacingTop=-1;spacingLeft=3;spacingRight=3;rotatable=0;labelPosition=right;points=[];portConstraint=eastwest;strokeColor=inherit;" vertex="1" parent="N5PS_7Kms6tre_HhDDwK-5">
          <mxGeometry y="26" width="140" height="8" as="geometry" />
        </mxCell>
        <mxCell id="N5PS_7Kms6tre_HhDDwK-10" value="&lt;div&gt;PlayerKing&lt;/div&gt;" style="swimlane;fontStyle=1;align=center;verticalAlign=top;childLayout=stackLayout;horizontal=1;startSize=26;horizontalStack=0;resizeParent=1;resizeParentMax=0;resizeLast=0;collapsible=1;marginBottom=0;whiteSpace=wrap;html=1;" vertex="1" parent="1">
          <mxGeometry x="460" y="220" width="120" height="34" as="geometry" />
        </mxCell>
        <mxCell id="N5PS_7Kms6tre_HhDDwK-12" value="" style="line;strokeWidth=1;fillColor=none;align=left;verticalAlign=middle;spacingTop=-1;spacingLeft=3;spacingRight=3;rotatable=0;labelPosition=right;points=[];portConstraint=eastwest;strokeColor=inherit;" vertex="1" parent="N5PS_7Kms6tre_HhDDwK-10">
          <mxGeometry y="26" width="120" height="8" as="geometry" />
        </mxCell>
        <mxCell id="N5PS_7Kms6tre_HhDDwK-22" style="edgeStyle=orthogonalEdgeStyle;rounded=0;orthogonalLoop=1;jettySize=auto;html=1;exitX=0.5;exitY=0;exitDx=0;exitDy=0;endArrow=block;endFill=0;startSize=14;endSize=10;" edge="1" parent="1" source="N5PS_7Kms6tre_HhDDwK-13">
          <mxGeometry relative="1" as="geometry">
            <mxPoint x="459.9999999999998" y="100" as="targetPoint" />
          </mxGeometry>
        </mxCell>
        <mxCell id="N5PS_7Kms6tre_HhDDwK-13" value="OpponentKing" style="swimlane;fontStyle=1;align=center;verticalAlign=top;childLayout=stackLayout;horizontal=1;startSize=26;horizontalStack=0;resizeParent=1;resizeParentMax=0;resizeLast=0;collapsible=1;marginBottom=0;whiteSpace=wrap;html=1;" vertex="1" parent="1">
          <mxGeometry x="305" y="220" width="130" height="34" as="geometry" />
        </mxCell>
        <mxCell id="N5PS_7Kms6tre_HhDDwK-15" value="" style="line;strokeWidth=1;fillColor=none;align=left;verticalAlign=middle;spacingTop=-1;spacingLeft=3;spacingRight=3;rotatable=0;labelPosition=right;points=[];portConstraint=eastwest;strokeColor=inherit;" vertex="1" parent="N5PS_7Kms6tre_HhDDwK-13">
          <mxGeometry y="26" width="130" height="8" as="geometry" />
        </mxCell>
        <mxCell id="N5PS_7Kms6tre_HhDDwK-16" value="&lt;div&gt;OpponentPiece&lt;/div&gt;" style="swimlane;fontStyle=1;align=center;verticalAlign=top;childLayout=stackLayout;horizontal=1;startSize=26;horizontalStack=0;resizeParent=1;resizeParentMax=0;resizeLast=0;collapsible=1;marginBottom=0;whiteSpace=wrap;html=1;" vertex="1" parent="1">
          <mxGeometry x="600" y="220" width="120" height="34" as="geometry" />
        </mxCell>
        <mxCell id="N5PS_7Kms6tre_HhDDwK-18" value="" style="line;strokeWidth=1;fillColor=none;align=left;verticalAlign=middle;spacingTop=-1;spacingLeft=3;spacingRight=3;rotatable=0;labelPosition=right;points=[];portConstraint=eastwest;strokeColor=inherit;" vertex="1" parent="N5PS_7Kms6tre_HhDDwK-16">
          <mxGeometry y="26" width="120" height="8" as="geometry" />
        </mxCell>
        <mxCell id="N5PS_7Kms6tre_HhDDwK-21" style="edgeStyle=orthogonalEdgeStyle;rounded=0;orthogonalLoop=1;jettySize=auto;html=1;exitX=0.5;exitY=0;exitDx=0;exitDy=0;entryX=0.511;entryY=1.025;entryDx=0;entryDy=0;entryPerimeter=0;endArrow=block;endFill=0;startSize=14;endSize=10;" edge="1" parent="1" source="N5PS_7Kms6tre_HhDDwK-5" target="N5PS_7Kms6tre_HhDDwK-4">
          <mxGeometry relative="1" as="geometry" />
        </mxCell>
        <mxCell id="N5PS_7Kms6tre_HhDDwK-27" value="GameState" style="swimlane;fontStyle=1;align=center;verticalAlign=top;childLayout=stackLayout;horizontal=1;startSize=26;horizontalStack=0;resizeParent=1;resizeParentMax=0;resizeLast=0;collapsible=1;marginBottom=0;whiteSpace=wrap;html=1;" vertex="1" parent="1">
          <mxGeometry x="320" y="-280" width="270" height="178" as="geometry" />
        </mxCell>
        <mxCell id="N5PS_7Kms6tre_HhDDwK-28" value="&lt;div&gt;- pieces: CheckerPiece[]&lt;/div&gt;&lt;div&gt;- turn: &lt;br&gt;&lt;/div&gt;ETurn" style="text;strokeColor=none;fillColor=none;align=left;verticalAlign=top;spacingLeft=4;spacingRight=4;overflow=hidden;rotatable=0;points=[[0,0.5],[1,0.5]];portConstraint=eastwest;whiteSpace=wrap;html=1;" vertex="1" parent="N5PS_7Kms6tre_HhDDwK-27">
          <mxGeometry y="26" width="270" height="64" as="geometry" />
        </mxCell>
        <mxCell id="N5PS_7Kms6tre_HhDDwK-29" value="" style="line;strokeWidth=1;fillColor=none;align=left;verticalAlign=middle;spacingTop=-1;spacingLeft=3;spacingRight=3;rotatable=0;labelPosition=right;points=[];portConstraint=eastwest;strokeColor=inherit;" vertex="1" parent="N5PS_7Kms6tre_HhDDwK-27">
          <mxGeometry y="90" width="270" height="8" as="geometry" />
        </mxCell>
        <mxCell id="N5PS_7Kms6tre_HhDDwK-30" value="&lt;div&gt;+ getPiece(location: Coord): CheckerPiece&lt;/div&gt;&lt;div&gt;+ reset(): void&lt;br&gt;&lt;/div&gt;" style="text;strokeColor=none;fillColor=none;align=left;verticalAlign=top;spacingLeft=4;spacingRight=4;overflow=hidden;rotatable=0;points=[[0,0.5],[1,0.5]];portConstraint=eastwest;whiteSpace=wrap;html=1;" vertex="1" parent="N5PS_7Kms6tre_HhDDwK-27">
          <mxGeometry y="98" width="270" height="80" as="geometry" />
        </mxCell>
        <mxCell id="N5PS_7Kms6tre_HhDDwK-32" value="ETurn" style="swimlane;fontStyle=1;align=center;verticalAlign=top;childLayout=stackLayout;horizontal=1;startSize=26;horizontalStack=0;resizeParent=1;resizeParentMax=0;resizeLast=0;collapsible=1;marginBottom=0;whiteSpace=wrap;html=1;" vertex="1" parent="1">
          <mxGeometry x="145" y="-280" width="160" height="70" as="geometry" />
        </mxCell>
        <mxCell id="N5PS_7Kms6tre_HhDDwK-33" value="&lt;div&gt;+PLAYER&lt;/div&gt;&lt;div&gt;+OPPONENT&lt;br&gt; &lt;/div&gt;" style="text;strokeColor=none;fillColor=none;align=left;verticalAlign=top;spacingLeft=4;spacingRight=4;overflow=hidden;rotatable=0;points=[[0,0.5],[1,0.5]];portConstraint=eastwest;whiteSpace=wrap;html=1;" vertex="1" parent="N5PS_7Kms6tre_HhDDwK-32">
          <mxGeometry y="26" width="160" height="44" as="geometry" />
        </mxCell>
      </root>
    </mxGraphModel>
  </diagram>
</mxfile>
